#Comment line ignore any data following # character 
#Hierarchical Translation and Rotation (.htr) file 
[Header]	
#Header keywords are followed by a single value 
FileType HTR		#Single word string
DataType HTRS		#Translation followed by rotation and scale data
FileVersion 1		#integer
NumSegments 64		#integer
NumFrames 3		#integer
DataFrameRate 30		#integer, data frame rate in this file
EulerRotationOrder ZYX
CalibrationUnits mm
RotationUnits Degrees
GlobalAxisofGravity Y
BoneLengthAxis Y
ScaleFactor 1.00
[SegmentNames&Hierarchy]
#CHILD	PARENT
Pinger_Root GLOBAL
Pelvis Pinger_Root
L_Hip Pelvis
R_Hip Pelvis
Rear_Leg01 Pelvis
Spine1 Pelvis
L_Leg01 L_Hip
L_Leg02 L_Leg01
L_Leg03 L_Leg02
L_Foot L_Leg03
L_Toe1_01 L_Foot
L_Toe2_01 L_Foot
L_Toe3_01 L_Foot
planeAlignerLeft L_Foot
L_Toe1_02 L_Toe1_01
L_Toe1_03 L_Toe1_02
L_Toe2_02 L_Toe2_01
L_Toe2_03 L_Toe2_02
L_Toe3_02 L_Toe3_01
L_Toe3_03 L_Toe3_02
planeLockWeightLeft planeAlignerLeft
R_Leg01 R_Hip
R_Leg02 R_Leg01
R_Leg03 R_Leg02
R_Foot R_Leg03
planeAlignerRight R_Foot
R_Toe1_01 R_Foot
R_Toe2_01 R_Foot
R_Toe3_01 R_Foot
planeLockWeightRight planeAlignerRight
R_Toe1_02 R_Toe1_01
R_Toe1_03 R_Toe1_02
R_Toe2_02 R_Toe2_01
R_Toe2_03 R_Toe2_02
R_Toe3_02 R_Toe3_01
R_Toe3_03 R_Toe3_02
Rear_Leg02 Rear_Leg01
Rear_Leg03 Rear_Leg02
Rear_Leg04 Rear_Leg03
Rear_Foot Rear_Leg04
planeAlignerCenter Rear_Foot
Rear_Toe1_01 Rear_Foot
Rear_Toe2_01 Rear_Foot
Rear_Toe3_01 Rear_Foot
planeLockWeightCenter planeAlignerCenter
Rear_Toe1_02 Rear_Toe1_01
Rear_Toe1_03 Rear_Toe1_02
Rear_Toe2_02 Rear_Toe2_01
Rear_Toe2_03 Rear_Toe2_02
Rear_Toe3_02 Rear_Toe3_01
Rear_Toe3_03 Rear_Toe3_02
Back_Bone Spine1
Head Spine1
Motor_Bone Back_Bone
Ping_Mechanism Back_Bone
BN_LookIK Head
bottomMouth Head
L_Mouth01 Head
L_mouthFront Head
mouthGun Head
R_Mouth01 Head
R_mouthFront Head
TopMouth Head
weapon_bone Head
[BasePosition]
#SegmentName Tx, Ty, Tz, Rx, Ry, Rz, BoneLength
Pinger_Root 0.000000 0.000000 0.000000 -90.000000 0.000000 0.000000 10.000000 
Pelvis 0.000000 0.000000 0.000000 0.000000 0.000000 0.000000 10.000000 
L_Hip 0.000000 0.000000 0.000000 0.000000 0.000000 0.000000 10.000000 
R_Hip 0.000000 0.000000 0.000000 0.000000 0.000000 0.000000 10.000000 
Rear_Leg01 0.000000 0.000000 0.000000 0.000000 0.000000 0.000000 10.000000 
Spine1 0.000000 0.000000 0.000000 0.000000 0.000000 0.000000 10.000000 
L_Leg01 0.000000 0.000000 0.000000 0.000000 0.000000 0.000000 10.000000 
L_Leg02 0.000000 0.000000 0.000000 0.000000 0.000000 0.000000 10.000000 
L_Leg03 0.000000 0.000000 0.000000 0.000000 0.000000 0.000000 10.000000 
L_Foot 0.000000 0.000000 0.000000 0.000000 0.000000 0.000000 10.000000 
L_Toe1_01 0.000000 0.000000 0.000000 0.000000 0.000000 0.000000 10.000000 
L_Toe2_01 0.000000 0.000000 0.000000 0.000000 0.000000 0.000000 10.000000 
L_Toe3_01 0.000000 0.000000 0.000000 0.000000 0.000000 0.000000 10.000000 
planeAlignerLeft 0.000000 0.000000 0.000000 0.000000 0.000000 0.000000 10.000000 
L_Toe1_02 0.000000 0.000000 0.000000 0.000000 0.000000 0.000000 10.000000 
L_Toe1_03 0.000000 0.000000 0.000000 0.000000 0.000000 0.000000 10.000000 
L_Toe2_02 0.000000 0.000000 0.000000 0.000000 0.000000 0.000000 10.000000 
L_Toe2_03 0.000000 0.000000 0.000000 0.000000 0.000000 0.000000 10.000000 
L_Toe3_02 0.000000 0.000000 0.000000 0.000000 0.000000 0.000000 10.000000 
L_Toe3_03 0.000000 0.000000 0.000000 0.000000 0.000000 0.000000 10.000000 
planeLockWeightLeft 0.000000 0.000000 0.000000 0.000000 0.000000 0.000000 10.000000 
R_Leg01 0.000000 0.000000 0.000000 0.000000 0.000000 0.000000 10.000000 
R_Leg02 0.000000 0.000000 0.000000 0.000000 0.000000 0.000000 10.000000 
R_Leg03 0.000000 0.000000 0.000000 0.000000 0.000000 0.000000 10.000000 
R_Foot 0.000000 0.000000 0.000000 0.000000 0.000000 0.000000 10.000000 
planeAlignerRight 0.000000 0.000000 0.000000 0.000000 0.000000 0.000000 10.000000 
R_Toe1_01 0.000000 0.000000 0.000000 0.000000 0.000000 0.000000 10.000000 
R_Toe2_01 0.000000 0.000000 0.000000 0.000000 0.000000 0.000000 10.000000 
R_Toe3_01 0.000000 0.000000 0.000000 0.000000 0.000000 0.000000 10.000000 
planeLockWeightRight 0.000000 0.000000 0.000000 0.000000 0.000000 0.000000 10.000000 
R_Toe1_02 0.000000 0.000000 0.000000 0.000000 0.000000 0.000000 10.000000 
R_Toe1_03 0.000000 0.000000 0.000000 0.000000 0.000000 0.000000 10.000000 
R_Toe2_02 0.000000 0.000000 0.000000 0.000000 0.000000 0.000000 10.000000 
R_Toe2_03 0.000000 0.000000 0.000000 0.000000 0.000000 0.000000 10.000000 
R_Toe3_02 0.000000 0.000000 0.000000 0.000000 0.000000 0.000000 10.000000 
R_Toe3_03 0.000000 0.000000 0.000000 0.000000 0.000000 0.000000 10.000000 
Rear_Leg02 0.000000 0.000000 0.000000 0.000000 0.000000 0.000000 10.000000 
Rear_Leg03 0.000000 0.000000 0.000000 0.000000 0.000000 0.000000 10.000000 
Rear_Leg04 0.000000 0.000000 0.000000 0.000000 0.000000 0.000000 10.000000 
Rear_Foot 0.000000 0.000000 0.000000 0.000000 0.000000 0.000000 10.000000 
planeAlignerCenter 0.000000 0.000000 0.000000 0.000000 0.000000 0.000000 10.000000 
Rear_Toe1_01 0.000000 0.000000 0.000000 0.000000 0.000000 0.000000 10.000000 
Rear_Toe2_01 0.000000 0.000000 0.000000 0.000000 0.000000 0.000000 10.000000 
Rear_Toe3_01 0.000000 0.000000 0.000000 0.000000 0.000000 0.000000 10.000000 
planeLockWeightCenter 0.000000 0.000000 0.000000 0.000000 0.000000 0.000000 10.000000 
Rear_Toe1_02 0.000000 0.000000 0.000000 0.000000 0.000000 0.000000 10.000000 
Rear_Toe1_03 0.000000 0.000000 0.000000 0.000000 0.000000 0.000000 10.000000 
Rear_Toe2_02 0.000000 0.000000 0.000000 0.000000 0.000000 0.000000 10.000000 
Rear_Toe2_03 0.000000 0.000000 0.000000 0.000000 0.000000 0.000000 10.000000 
Rear_Toe3_02 0.000000 0.000000 0.000000 0.000000 0.000000 0.000000 10.000000 
Rear_Toe3_03 0.000000 0.000000 0.000000 0.000000 0.000000 0.000000 10.000000 
Back_Bone 0.000000 0.000000 0.000000 0.000000 0.000000 0.000000 10.000000 
Head 0.000000 0.000000 0.000000 0.000000 0.000000 0.000000 10.000000 
Motor_Bone 0.000000 0.000000 0.000000 0.000000 0.000000 0.000000 10.000000 
Ping_Mechanism 0.000000 0.000000 0.000000 0.000000 0.000000 0.000000 10.000000 
BN_LookIK 0.000000 0.000000 0.000000 0.000000 0.000000 0.000000 10.000000 
bottomMouth 0.000000 0.000000 0.000000 0.000000 0.000000 0.000000 10.000000 
L_Mouth01 0.000000 0.000000 0.000000 0.000000 0.000000 0.000000 10.000000 
L_mouthFront 0.000000 0.000000 0.000000 0.000000 0.000000 0.000000 10.000000 
mouthGun 0.000000 0.000000 0.000000 0.000000 0.000000 0.000000 10.000000 
R_Mouth01 0.000000 0.000000 0.000000 0.000000 0.000000 0.000000 10.000000 
R_mouthFront 0.000000 0.000000 0.000000 0.000000 0.000000 0.000000 10.000000 
TopMouth 0.000000 0.000000 0.000000 0.000000 0.000000 0.000000 10.000000 
weapon_bone 0.000000 0.000000 0.000000 0.000000 0.000000 0.000000 10.000000 
#Beginning of Data. Separated by tabs
#Fr	Tx	Ty	Tz	Rx	Ry	Rz	SF
[Pinger_Root]
9 0.000000 0.000000 0.000000 -0.000075 -0.000000 -0.000020 0.000000
10 0.000000 0.000000 0.000000 -0.000075 -0.000000 -0.000020 0.000000
11 0.000000 0.000000 0.000000 -0.000075 -0.000000 -0.000020 0.000000
[Pelvis]
9 24.161839 1005.585815 4231.015137 94.264702 -75.901413 -102.173607 4348.939453
10 26.542780 1013.139221 4044.430664 94.267967 -73.232910 -102.396843 4169.481445
11 29.313326 1015.922180 3801.601318 94.357437 -70.775032 -102.713158 3935.114990
[L_Hip]
9 5.766392 125.831482 872.656799 164.706680 -49.338520 112.019135 881.701050
10 5.766392 125.831482 872.656799 167.610641 -51.818630 105.793556 881.701050
11 5.766392 125.831482 872.656799 170.739395 -54.646442 99.340240 881.701050
[R_Hip]
9 5.765438 125.836372 -872.654907 29.186325 54.429539 114.445946 881.699829
10 5.765438 125.836372 -872.654907 24.002678 56.227692 108.146133 881.699829
11 5.765438 125.836372 -872.654907 19.563526 57.384449 102.844917 881.699829
[Rear_Leg01]
9 -192.298416 -925.602966 -0.001907 173.371765 6.948373 -107.409813 945.367432
10 -192.298416 -925.602966 -0.001907 174.302017 6.463123 -103.950035 945.367432
11 -192.298416 -925.602966 -0.001907 176.183960 6.401675 -98.306168 945.367432
[Spine1]
9 290.604584 5.007505 0.000477 10.728734 -0.230691 35.841423 290.647736
10 290.604584 5.007505 0.000477 11.233197 -0.357573 39.541046 290.647736
11 290.604584 5.007505 0.000477 11.644345 -0.373225 42.419327 290.647736
[L_Leg01]
9 761.932007 -0.002384 -0.069261 42.128429 -7.872100 -35.228722 761.932068
10 761.932007 -0.002384 -0.069261 48.767467 -7.911831 -40.959152 761.932068
11 761.932007 -0.002384 -0.069261 55.820415 -8.793818 -44.722282 761.932068
[L_Leg02]
9 1441.140503 -0.000954 -0.000715 3.237043 -0.424537 -125.628670 1441.140503
10 1441.140503 -0.000954 -0.000715 4.107273 -0.358930 -130.073273 1441.140503
11 1441.140503 -0.000954 -0.000715 6.315115 -0.186626 -137.288406 1441.140503
[L_Leg03]
9 1686.963989 -0.000715 -0.000954 -0.020839 0.008226 115.122482 1686.963989
10 1686.963989 -0.000715 -0.000954 -0.027430 0.010390 117.798500 1686.963989
11 1686.963989 -0.000715 -0.000954 -0.042970 0.019378 121.483086 1686.963989
[L_Foot]
9 3041.570068 -30.715107 11.297464 -2.206581 16.819735 58.504963 3041.746094
10 3041.570068 -30.715107 11.297464 -5.284857 18.944340 58.712940 3041.746094
11 3041.570068 -30.715107 11.297464 -8.384675 20.244387 59.107460 3041.746094
[L_Toe1_01]
9 -188.216690 -224.732346 -21.137953 89.819603 -6.712439 -176.652817 293.899567
10 -188.216690 -224.732346 -21.137953 87.147339 -6.653021 -176.461563 293.899567
11 -188.216690 -224.732346 -21.137953 84.225296 -6.575913 -176.159576 293.899567
[L_Toe2_01]
9 200.746536 -219.926590 148.838394 -88.306374 -25.582785 -47.461357 332.896027
10 200.746536 -219.926590 148.838394 -85.679413 -24.036701 -48.569153 332.896027
11 200.746536 -219.926590 148.838394 -82.842018 -22.296341 -49.845715 332.896027
[L_Toe3_01]
9 188.832520 -219.859131 -191.078659 -103.718124 21.998421 -60.049160 347.140900
10 188.832520 -219.859131 -191.078659 -107.081276 25.833426 -59.946770 347.140900
11 188.832520 -219.859131 -191.078659 -110.856110 29.982464 -59.805683 347.140900
[planeAlignerLeft]
9 21.065063 -502.498138 58.775860 175.281616 -80.356163 83.705521 506.362213
10 16.235348 -502.547791 33.032887 -177.383820 -82.813347 76.249435 503.893890
11 11.388397 -501.076691 5.192109 -160.887314 -85.216560 59.705456 501.233002
[L_Toe1_02]
9 413.761139 0.000477 0.000000 0.001384 -25.940430 0.001384 413.761139
10 413.761139 0.000477 0.000000 0.001384 -25.931368 0.001384 413.761139
11 413.761139 0.000477 0.000000 0.001384 -25.922306 0.001384 413.761139
[L_Toe1_03]
9 464.317322 0.000358 -0.000089 0.003751 53.530762 0.003751 464.317322
10 464.317322 0.000358 -0.000089 0.003669 52.678493 0.003669 464.317322
11 464.317322 0.000358 -0.000089 0.003590 51.825977 0.003590 464.317322
[L_Toe2_02]
9 342.235809 -0.000477 0.000238 0.001183 -75.856674 0.001183 342.235809
10 342.235809 -0.000477 0.000238 0.001182 -76.048859 0.001182 342.235809
11 342.235809 -0.000477 0.000238 0.001182 -76.053040 0.001182 342.235809
[L_Toe2_03]
9 420.210846 -0.000715 0.000000 -179.990402 84.196907 -179.986893 420.210846
10 420.210846 -0.000715 0.000000 -179.991287 83.697983 -179.987793 420.210846
11 420.210846 -0.000715 0.000000 -179.991699 83.446022 -179.988190 420.210846
[L_Toe3_02]
9 329.270111 0.000954 0.000000 0.001176 -82.952156 0.001176 329.270111
10 329.270111 0.000954 0.000000 0.001176 -83.005043 0.001176 329.270111
11 329.270111 0.000954 0.000000 0.001176 -83.057762 0.001176 329.270111
[L_Toe3_03]
9 439.137451 -0.001907 0.000954 179.990738 66.147781 179.997910 439.137451
10 439.137451 -0.001907 0.000954 179.990799 65.911835 179.997955 439.137451
11 439.137451 -0.001907 0.000954 179.990768 66.023857 179.997925 439.137451
[planeLockWeightLeft]
9 999.998718 0.097979 0.076022 -0.011826 -0.004376 0.005620 999.998779
10 999.998718 0.097981 0.076022 -0.011826 -0.004376 0.005620 999.998779
11 999.998718 0.097984 0.076021 -0.011826 -0.004376 0.005620 999.998779
[R_Leg01]
9 761.455627 -0.001907 -0.000358 109.801277 -12.353463 48.413887 761.455688
10 761.455627 -0.001907 -0.000358 108.863899 -12.433271 52.976055 761.455688
11 761.455627 -0.001907 -0.000358 107.047211 -13.964642 56.207077 761.455688
[R_Leg02]
9 1441.140625 0.000000 -0.000238 -1.117714 0.078946 -133.075775 1441.140625
10 1441.140625 0.000000 -0.000238 -1.338745 0.043120 -137.789322 1441.140625
11 1441.140625 0.000000 -0.000238 -1.725201 -0.038987 -145.372116 1441.140625
[R_Leg03]
9 1686.963989 0.000954 0.001431 0.021129 -0.012109 116.255806 1686.963989
10 1686.963989 0.000954 0.001431 0.027683 -0.014209 118.363693 1686.963989
11 1686.963989 0.000954 0.001431 0.040720 -0.018826 121.675735 1686.963989
[R_Foot]
9 3041.560059 -30.531288 -11.204481 4.389338 -28.747332 65.897652 3041.734131
10 3041.560059 -30.531288 -11.204481 7.237276 -28.056396 66.311142 3041.734131
11 3041.560059 -30.531288 -11.204481 11.019909 -28.014557 66.809814 3041.734131
[planeAlignerRight]
9 -155.979919 -508.530426 -273.221985 -40.747288 -75.307030 -60.738422 597.982544
10 -167.276932 -518.889771 -248.728287 -44.741375 -77.823357 -57.044979 599.244507
11 -178.072662 -528.824158 -220.942459 -51.553108 -80.548302 -50.458458 600.150330
[R_Toe1_01]
9 -188.383347 -224.864899 21.052242 81.179611 -0.613455 -176.625900 294.101532
10 -188.383347 -224.864899 21.052242 83.883965 -0.678589 -176.042892 294.101532
11 -188.383347 -224.864899 21.052242 86.890991 -0.842322 -175.362671 294.101532
[R_Toe2_01]
9 200.637817 -220.002121 -148.787384 -97.155090 31.700994 -56.206490 332.857574
10 200.637817 -220.002121 -148.787384 -101.947502 29.566017 -57.571945 332.857574
11 200.637817 -220.002121 -148.787384 -107.135681 27.166113 -59.047203 332.857574
[R_Toe3_01]
9 188.606735 -220.092957 191.126343 -71.353683 -14.481594 -67.612289 347.192566
10 188.606735 -220.092957 191.126343 -70.208755 -17.235338 -66.942123 347.192566
11 188.606735 -220.092957 191.126343 -69.038956 -20.345402 -66.093246 347.192566
[planeLockWeightRight]
9 999.999329 0.000000 0.076016 -0.011823 -0.004379 -0.000027 999.999329
10 999.999329 0.000000 0.076016 -0.011823 -0.004379 -0.000027 999.999329
11 999.999329 0.000000 0.076015 -0.011823 -0.004379 -0.000027 999.999329
[R_Toe1_02]
9 413.762085 0.000477 -0.000119 0.001391 -25.024475 0.001391 413.762085
10 413.762085 0.000477 -0.000119 0.001389 -25.333508 0.001389 413.762085
11 413.762085 0.000477 -0.000119 0.001387 -25.642521 0.001387 413.762085
[R_Toe1_03]
9 464.317810 0.000000 0.001088 0.005820 66.733025 0.005820 464.317810
10 464.317810 0.000000 0.001088 0.005214 63.974686 0.005214 464.317810
11 464.317810 0.000000 0.001088 0.004722 61.216343 0.004722 464.317810
[R_Toe2_02]
9 342.234741 -0.000954 0.000238 0.001187 -73.077332 0.001187 342.234741
10 342.234741 -0.000954 0.000238 0.001186 -73.750076 0.001186 342.234741
11 342.234741 -0.000954 0.000238 -0.000580 -74.180992 -0.000580 342.234741
[R_Toe2_03]
9 420.210846 0.000715 -0.000268 0.001516 87.364403 -0.000816 420.210846
10 420.210846 0.000715 -0.000268 -0.083884 89.230263 -0.087380 420.210846
11 420.210846 0.000715 -0.000268 -179.910233 89.251137 -179.913727 420.210846
[R_Toe3_02]
9 329.270355 -0.000477 -0.000954 0.001178 -80.134140 0.001178 329.270355
10 329.270355 -0.000477 -0.000954 0.001178 -80.672646 0.001178 329.270355
11 329.270355 -0.000477 -0.000954 0.001177 -81.211235 0.001177 329.270355
[R_Toe3_03]
9 439.137939 0.000238 0.001431 -179.995392 79.633217 -179.991882 439.137939
10 439.137939 0.000238 0.001431 -179.996536 77.360855 -179.993011 439.137939
11 439.137939 0.000238 0.001431 -179.997330 75.089355 -179.993805 439.137939
[Rear_Leg02]
9 1162.777710 -0.029802 0.005960 4.933607 -7.605763 -103.808891 1162.777710
10 1162.777710 -0.029802 0.005960 7.930740 -8.068039 -118.036774 1162.777710
11 1162.777710 -0.029802 0.005960 10.267876 -6.704525 -133.243011 1162.777710
[Rear_Leg03]
9 607.192505 -0.013351 -0.073195 0.010408 -0.005275 70.112137 607.192505
10 607.192505 -0.013351 -0.073195 0.010272 -0.005543 73.057518 607.192505
11 607.192505 -0.013351 -0.073195 0.010123 -0.005803 76.002861 607.192505
[Rear_Leg04]
9 995.874512 -0.020504 -0.011921 -0.040736 -0.017595 70.638634 995.874573
10 995.874512 -0.020504 -0.011921 -0.041786 -0.014930 78.038078 995.874573
11 995.874512 -0.020504 -0.011921 -0.042543 -0.018835 86.395790 995.874573
[Rear_Foot]
9 3096.176270 -0.067472 -0.041425 -129.434830 81.363121 59.829220 3096.176270
10 3096.176270 -0.067472 -0.041425 -124.589111 79.874390 62.928200 3096.176270
11 3096.176270 -0.067472 -0.041425 -111.610100 79.724152 69.663269 3096.176270
[planeAlignerCenter]
9 1.039429 -75.165405 -878.980713 12.240772 -0.001473 179.998184 882.189331
10 0.501956 -75.758354 -890.994019 12.240772 -0.001473 179.998184 894.209106
11 -0.886879 -67.420349 -908.798035 12.240772 -0.001473 179.998184 911.295837
[Rear_Toe1_01]
9 0.653352 83.966492 -371.173737 0.351536 48.329918 90.453102 380.553192
10 0.653352 83.966492 -371.173737 0.450006 49.281929 90.539230 380.553192
11 0.653352 83.966492 -371.173737 0.794388 55.734718 90.831467 380.553192
[Rear_Toe2_01]
9 178.200760 -294.826019 -362.060547 -5.515509 41.821869 -64.246284 499.765686
10 178.200760 -294.826019 -362.060547 -4.123892 45.997303 -63.122395 499.765686
11 178.200760 -294.826019 -362.060547 0.246084 53.380711 -59.481010 499.765686
[Rear_Toe3_01]
9 -153.359680 -308.780914 -362.060852 2.206498 40.890091 -114.211754 499.952881
10 -153.359680 -308.780914 -362.060852 1.584374 45.205681 -114.419411 499.952881
11 -153.359680 -308.780914 -362.060852 -0.464548 52.339535 -115.758965 499.952881
[planeLockWeightCenter]
9 1000.000000 0.000287 0.076255 -0.011814 -0.004373 -0.000015 1000.000000
10 1000.000000 0.000285 0.076255 -0.011814 -0.004373 -0.000015 1000.000000
11 1000.000000 0.000283 0.076255 -0.011814 -0.004373 -0.000015 1000.000000
[Rear_Toe1_02]
9 379.707825 0.194073 0.000477 -0.000152 -30.414040 0.006886 379.707855
10 379.707825 0.194073 0.000477 0.001333 -33.428497 0.001333 379.707855
11 379.707825 0.194073 0.000477 -0.000655 -32.802113 -0.000655 379.707855
[Rear_Toe1_03]
9 500.129700 0.165701 0.000119 -0.000620 46.231632 0.006917 500.129761
10 500.129700 0.165701 0.000119 -0.004619 66.590981 -0.001048 500.129761
11 500.129700 0.165701 0.000119 0.000000 89.931473 -0.003497 500.129761
[Rear_Toe2_02]
9 340.494507 0.000238 -0.000954 0.001189 -71.558479 0.001189 340.494507
10 340.494507 0.000238 -0.000954 0.001178 -80.247276 0.001178 340.494507
11 340.494507 0.000238 -0.000954 0.001174 -88.264160 0.001174 340.494507
[Rear_Toe2_03]
9 433.103577 0.000000 0.000238 0.007709 72.485809 0.007709 433.103546
10 433.103577 0.000000 0.000238 0.071188 88.110519 0.071188 433.103546
11 433.103577 0.000000 0.000238 -179.994522 72.118340 -179.998062 433.103546
[Rear_Toe3_02]
9 340.494141 -0.000358 -0.000477 0.001192 -69.577301 0.001192 340.494171
10 340.494141 -0.000358 -0.000477 0.001179 -79.075150 0.001179 340.494171
11 340.494141 -0.000358 -0.000477 0.001174 -87.844597 0.001174 340.494171
[Rear_Toe3_03]
9 433.103577 0.001431 -0.000238 0.006562 69.394737 0.006562 433.103546
10 433.103577 0.001431 -0.000238 -0.017066 85.698891 -0.013567 433.103546
11 433.103577 0.001431 -0.000238 -179.997787 73.420692 -179.994247 433.103546
[Back_Bone]
9 1312.175781 -701.934692 0.000954 1.476979 0.001718 -85.608841 1488.125488
10 1312.175781 -701.934692 0.000954 1.476979 0.001718 -85.608841 1488.125488
11 1312.175781 -701.934692 0.000954 1.476979 0.001718 -85.608841 1488.125488
[Head]
9 1406.159424 809.709290 0.001431 -3.352989 1.695888 3.758000 1622.625488
10 1406.159424 809.709290 0.001431 -3.251333 1.643404 0.489421 1622.625488
11 1406.159424 809.709290 0.001431 -3.251169 1.644655 -1.212811 1622.625488
[Motor_Bone]
9 1158.364380 -417.834747 0.000477 -0.094528 0.077534 -109.001373 1231.419434
10 1158.364380 -417.834747 0.000477 -0.094078 0.078753 -112.463722 1231.419434
11 1158.364380 -417.834747 0.000477 -0.095703 0.077369 -116.714233 1231.419434
[Ping_Mechanism]
9 1157.045044 -396.022308 -17.295351 0.000103 -0.000053 82.120995 1223.064087
10 1148.641602 -386.539276 -21.022923 0.000103 -0.000053 82.120995 1212.118896
11 1140.238281 -377.056274 -24.750490 0.000103 -0.000053 82.120995 1201.219116
[BN_LookIK]
9 193.241119 1380.371704 -0.002861 0.000000 89.965736 -31.038179 1393.832153
10 193.241119 1380.371704 -0.002861 0.000000 89.965736 -31.038179 1393.832153
11 193.241119 1380.371704 -0.002861 0.000000 89.965736 -31.038179 1393.832153
[bottomMouth]
9 -435.092926 615.759399 -0.000954 -0.000022 0.000016 73.527184 753.966492
10 -435.092926 615.759399 -0.000954 -0.000022 0.000016 73.527184 753.966492
11 -435.092926 615.759399 -0.000954 -0.000022 0.000016 73.527184 753.966492
[L_Mouth01]
9 554.440979 7.658243 838.222046 150.204178 23.759130 109.605339 1005.027161
10 554.440979 7.658243 838.222046 150.204178 23.759130 109.605339 1005.027161
11 554.440979 7.658243 838.222046 150.204178 23.759130 109.605339 1005.027161
[L_mouthFront]
9 551.629089 934.514771 339.150421 0.000081 2.804060 79.119301 1136.941284
10 551.629089 934.514771 339.150421 0.000081 2.804060 79.119301 1136.941284
11 551.629089 934.514771 339.150421 0.000081 2.804060 79.119301 1136.941284
[mouthGun]
9 55.332661 1627.420898 0.000000 0.000023 0.000009 -11.038128 1628.361328
10 55.332661 1627.420898 0.000000 0.000023 0.000009 -11.038128 1628.361328
11 55.332661 1627.420898 0.000000 0.000023 0.000009 -11.038128 1628.361328
[R_Mouth01]
9 554.442383 7.659197 -838.223938 29.795891 -23.759109 109.605331 1005.029541
10 554.442383 7.659197 -838.223938 29.795891 -23.759109 109.605331 1005.029541
11 554.442383 7.659197 -838.223938 29.795891 -23.759109 109.605331 1005.029541
[R_mouthFront]
9 551.629089 934.514282 -339.151367 0.000029 -2.803930 79.119133 1136.941162
10 551.629089 934.514282 -339.151367 0.000029 -2.803930 79.119133 1136.941162
11 551.629089 934.514282 -339.151367 0.000029 -2.803930 79.119133 1136.941162
[TopMouth]
9 461.269867 -56.106091 -0.008583 -0.000059 -0.000268 92.025169 464.669525
10 461.269867 -56.106091 -0.008583 -0.000059 -0.000268 92.025169 464.669525
11 461.269867 -56.106091 -0.008583 -0.000059 -0.000268 92.025169 464.669525
[weapon_bone]
9 -987.239868 1448.372803 0.001431 0.000000 89.965736 -31.038221 1752.833740
10 -987.239868 1448.372803 0.001431 0.000000 89.965736 -31.038221 1752.833740
11 -987.239868 1448.372803 0.001431 0.000000 89.965736 -31.038221 1752.833740
